<?xml version="1.0" encoding="UTF-8" standalone="no"?>
<!-- Created with Inkscape (http://www.inkscape.org/) -->

<svg
   xmlns:dc="http://purl.org/dc/elements/1.1/"
   xmlns:cc="http://creativecommons.org/ns#"
   xmlns:rdf="http://www.w3.org/1999/02/22-rdf-syntax-ns#"
   xmlns:svg="http://www.w3.org/2000/svg"
   xmlns="http://www.w3.org/2000/svg"
   xmlns:sodipodi="http://sodipodi.sourceforge.net/DTD/sodipodi-0.dtd"
   xmlns:inkscape="http://www.inkscape.org/namespaces/inkscape"
   width="25"
   height="45"
   viewBox="0 0 6.6145833 11.90625"
   version="1.1"
   id="svg8"
   inkscape:version="0.92.3 (2405546, 2018-03-11)"
   sodipodi:docname="marker.svg"
   inkscape:export-filename="C:\Users\user\Rafael\saferoute archive\inkscape\marker.png"
   inkscape:export-xdpi="96"
   inkscape:export-ydpi="96">
  <defs
     id="defs2" />
  <sodipodi:namedview
     id="base"
     pagecolor="#ffffff"
     bordercolor="#666666"
     borderopacity="1.0"
     inkscape:pageopacity="0.0"
     inkscape:pageshadow="2"
     inkscape:zoom="10.24"
     inkscape:cx="12.662291"
     inkscape:cy="20.59301"
     inkscape:document-units="mm"
     inkscape:current-layer="g36"
     showgrid="true"
     units="px"
     showguides="true"
     inkscape:guide-bbox="true"
     inkscape:window-width="760"
     inkscape:window-height="405"
     inkscape:window-x="1011"
     inkscape:window-y="44"
     inkscape:window-maximized="0">
    <inkscape:grid
       type="xygrid"
       id="grid3722" />
  </sodipodi:namedview>
  <metadata
     id="metadata5">
    <rdf:RDF>
      <cc:Work
         rdf:about="">
        <dc:format>image/svg+xml</dc:format>
        <dc:type
           rdf:resource="http://purl.org/dc/dcmitype/StillImage" />
        <dc:title />
      </cc:Work>
    </rdf:RDF>
  </metadata>
  <g
     inkscape:label="Marcador"
     inkscape:groupmode="layer"
     id="layer1"
     transform="translate(0,-285.09373)"
     sodipodi:insensitive="true"
     style="display:none">
    <path
       style="fill:#800000;stroke-width:0.99999994"
       d="M 12.5,0.04882812 C 5.0000001,0 0,5.0000001 0,12.548828 0,20 5.0000001,25 12.5,45 20,25 25,20 25.001953,12.548828 25,5.0000001 20,0 12.5,0.04882812 Z"
       id="path3713"
       inkscape:connector-curvature="0"
       sodipodi:nodetypes="ccccc"
       transform="matrix(0.26458333,0,0,0.26458333,0,285.09373)" />
    <circle
       style="fill:#ff0000;stroke-width:0.19843748"
       id="path3738"
       cx="3.3072915"
       cy="288.40103"
       r="2.4804688" />
  </g>
  <g
     transform="translate(0,-285.09373)"
     id="g30"
     inkscape:groupmode="layer"
     inkscape:label="Marcador v2"
     style="display:none"
     sodipodi:insensitive="true">
    <path
       sodipodi:nodetypes="cccccc"
       inkscape:connector-curvature="0"
       id="path26"
       d="M 12.5,0.04882812 C 5.0000001,0 0,5.0000001 0,12.548828 0,18.43174 3,25.999999 8.0000001,37 12,47.000001 13,47.000001 17,37 22,25.999999 25.000419,18.400475 25.001953,12.548828 25,5.0000001 20,0 12.5,0.04882812 Z"
       style="fill:#800000;stroke-width:0.99999994"
       inkscape:export-xdpi="96"
       inkscape:export-ydpi="96"
       transform="matrix(0.26458333,0,0,0.26458333,0,285.09373)" />
    <ellipse
       cy="288.40103"
       cx="3.3072915"
       id="circle28"
       style="fill:#ff0000;stroke-width:0.20777297"
       rx="2.6324782"
       ry="2.56232" />
  </g>
  <g
     style="display:inline"
     inkscape:label="Marcador estilo 1"
     inkscape:groupmode="layer"
     id="g36"
     transform="translate(0,-285.09373)">
    <path
       inkscape:export-ydpi="96"
       inkscape:export-xdpi="96"
       style="fill:#800000;stroke-width:0.99999994"
       d="M 12.5,0.04882812 C 5.0000001,0 0,5.0000001 0,12.548828 0,19 3,25.999999 8.0000001,37 12,47.000001 13,47.000001 17,37 22,25.999999 25,19 25.001953,12.548828 25,5.0000001 20,0 12.5,0.04882812 Z"
       id="path32"
       inkscape:connector-curvature="0"
       sodipodi:nodetypes="cccccc"
       transform="matrix(0.26458333,0,0,0.26458333,0,285.09373)" />
    <ellipse
       ry="2.56232"
       rx="2.6324782"
       style="fill:#ff0000;stroke-width:0.20777297"
       id="ellipse34"
       cx="3.3072915"
       cy="288.40103" />
  </g>
</svg>
