<?xml version="1.0" encoding="UTF-8" standalone="no"?>
<!-- Created with Inkscape (http://www.inkscape.org/) -->

<svg
   xmlns:dc="http://purl.org/dc/elements/1.1/"
   xmlns:cc="http://creativecommons.org/ns#"
   xmlns:rdf="http://www.w3.org/1999/02/22-rdf-syntax-ns#"
   xmlns:svg="http://www.w3.org/2000/svg"
   xmlns="http://www.w3.org/2000/svg"
   xmlns:sodipodi="http://sodipodi.sourceforge.net/DTD/sodipodi-0.dtd"
   xmlns:inkscape="http://www.inkscape.org/namespaces/inkscape"
   width="24"
   height="24"
   viewBox="0 0 6.3499999 6.3500002"
   version="1.1"
   id="svg4551"
   inkscape:version="0.92.3 (2405546, 2018-03-11)"
   sodipodi:docname="punch.svg"
   inkscape:export-filename="C:\xampp\htdocs\saferoute\Archive\inkscape\punch.png"
   inkscape:export-xdpi="96"
   inkscape:export-ydpi="96">
  <defs
     id="defs4545" />
  <sodipodi:namedview
     id="base"
     pagecolor="#ffffff"
     bordercolor="#666666"
     borderopacity="1.0"
     inkscape:pageopacity="0.0"
     inkscape:pageshadow="2"
     inkscape:zoom="11.2"
     inkscape:cx="12.54681"
     inkscape:cy="12.129397"
     inkscape:document-units="mm"
     inkscape:current-layer="layer3"
     showgrid="false"
     units="px"
     inkscape:window-width="958"
     inkscape:window-height="1048"
     inkscape:window-x="-7"
     inkscape:window-y="0"
     inkscape:window-maximized="0" />
  <metadata
     id="metadata4548">
    <rdf:RDF>
      <cc:Work
         rdf:about="">
        <dc:format>image/svg+xml</dc:format>
        <dc:type
           rdf:resource="http://purl.org/dc/dcmitype/StillImage" />
        <dc:title></dc:title>
      </cc:Work>
    </rdf:RDF>
  </metadata>
  <g
     inkscape:groupmode="layer"
     id="layer3"
     inkscape:label="explosion"
     style="opacity:1"
     sodipodi:insensitive="true">
    <path
       style="fill:#ffff00;stroke:#ff0000;stroke-width:0.26458332px;stroke-linecap:butt;stroke-linejoin:miter;stroke-opacity:1"
       d="M 0.28348212,6.1610117 1.6172289,3.2917 0.09449405,0.94021571 2.6147069,1.26497 2.9293153,-0.02834823 4.505454,1.29238 6.3074776,0.08976933 5.570387,2.6842662 6.4728421,4.6963542 4.4648437,3.4206844 4.5593378,6.2082589 2.7346994,5.0181872 Z"
       id="path5122"
       inkscape:connector-curvature="0"
       sodipodi:nodetypes="ccccccccccccc" />
  </g>
  <g
     inkscape:groupmode="layer"
     id="layer2"
     inkscape:label="white_backgroud"
     sodipodi:insensitive="true">
    <path
       style="fill:#ffffff;fill-opacity:1;stroke:#000000;stroke-width:0.26458332px;stroke-linecap:butt;stroke-linejoin:miter;stroke-opacity:1"
       d="M 3.107945,5.45754 2.9709345,4.4984699 2.3132833,4.7176801 1.8200451,4.4436598 1.2994045,4.5806399 0.97057902,4.30662 0.83074141,3.3022 0.9677855,2.27198 1.381611,1.51161 2.01186,1.5116 2.6147069,1.26497 3.2449558,1.31977 3.902607,1.07317 4.5054541,1.29238 5.0534969,1.1828 5.5755129,1.98734 5.7385494,3.3749699 5.5588058,4.5563901 5.026094,5.43014 Z"
       id="path4576"
       inkscape:connector-curvature="0" />
  </g>
  <g
     inkscape:label="punch"
     inkscape:groupmode="layer"
     id="layer1"
     transform="translate(0,-290.64998)"
     sodipodi:insensitive="true">
    <path
       style="fill:none;stroke:#000000;stroke-width:0.43402761px;stroke-linecap:butt;stroke-linejoin:miter;stroke-opacity:1"
       d="m 4.8616818,292.95627 0.1644126,1.1783 -0.2466188,1.1783 -0.38363,0.19182 -0.3836298,-0.24662 -0.6028469,0.1644 -0.4384344,-0.27402 -0.6576512,0.21921 -0.4932382,-0.27402 -0.5206406,0.13698 -0.32882548,-0.27402 -0.13983759,-1.00442 0.13704409,-1.03022 0.41382548,-0.76037 0.630249,-10e-6 0.6028469,-0.24663 0.630249,0.0548 0.6576511,-0.2466 0.602847,0.21921 0.548043,-0.10958 0.5220161,0.80454 0.1630363,1.38763 -0.1797435,1.18142 -0.5327119,0.87375 -1.918149,0.0274 -0.1370105,-0.95907"
       id="path4567"
       inkscape:connector-curvature="0"
       sodipodi:nodetypes="cccccccccccccccccccccccccc" />
    <path
       style="fill:none;stroke:#000000;stroke-width:0.23174383px;stroke-linecap:butt;stroke-linejoin:miter;stroke-opacity:1"
       d="m 1.8200451,295.09364 -0.2028162,-1.15196 0.1755725,-0.71692"
       id="path4569"
       inkscape:connector-curvature="0" />
    <path
       style="fill:none;stroke:#000000;stroke-width:0.23174383px;stroke-linecap:butt;stroke-linejoin:miter;stroke-opacity:1"
       d="m 2.9709346,295.14845 -0.1832225,-1.04583 0.1463102,-0.81934"
       id="path4571"
       inkscape:connector-curvature="0" />
    <path
       style="fill:none;stroke:#000000;stroke-width:0.23174383px;stroke-linecap:butt;stroke-linejoin:miter;stroke-opacity:1"
       d="m 4.0122159,295.25807 -0.127176,-1.17008 c -0.029262,-0.10241 0.058524,-0.81933 0.058524,-0.81933"
       id="path4573"
       inkscape:connector-curvature="0" />
  </g>
</svg>
